<?xml version="1.0" standalone="no"?>
<!DOCTYPE svg PUBLIC "-//W3C//DTD SVG 20010904//EN"
 "http://www.w3.org/TR/2001/REC-SVG-20010904/DTD/svg10.dtd">
<svg version="1.0" xmlns="http://www.w3.org/2000/svg"
 width="512.000000pt" height="512.000000pt" viewBox="0 0 512.000000 512.000000"
 preserveAspectRatio="xMidYMid meet">
<metadata>
Created by potrace 1.16, written by Peter Selinger 2001-2019
</metadata>
<g transform="translate(0.000000,512.000000) scale(0.100000,-0.100000)"
fill="#000000" stroke="none">
<path d="M0 2560 l0 -2560 2560 0 2560 0 0 2560 0 2560 -2560 0 -2560 0 0
-2560z m2890 2349 c516 -73 974 -308 1346 -690 304 -313 503 -673 604 -1095
25 -101 63 -334 56 -341 -1 -1 -208 -58 -460 -127 l-458 -124 -339 156 -339
155 -175 231 c-151 199 -173 232 -159 241 134 80 197 187 196 335 0 41 -7 93
-14 114 l-15 40 64 62 c48 47 73 82 102 145 49 106 61 164 61 298 0 110 -29
262 -62 326 l-15 27 -27 -75 c-15 -41 -41 -97 -58 -124 -45 -71 -135 -179
-178 -213 l-37 -30 -305 225 -305 224 -490 -168 c-270 -93 -497 -171 -504
-173 -8 -3 58 -3 147 0 493 15 754 -106 819 -379 24 -104 25 -101 -72 -160
-226 -135 -402 -272 -516 -401 -73 -82 -148 -182 -139 -185 4 -2 135 48 292
111 157 62 286 112 287 112 0 -1 -12 -50 -28 -111 -60 -230 -84 -511 -73 -878
l7 -237 104 -57 c71 -37 101 -58 92 -63 -8 -4 -200 -58 -428 -120 l-414 -111
-66 30 c-136 62 -232 83 -401 88 -205 7 -347 -17 -671 -114 -19 -5 -24 9 -59
142 -61 239 -86 571 -61 816 46 446 226 888 501 1234 413 518 1043 846 1705
888 111 8 349 -4 485 -24z m169 -2058 l119 -157 249 -113 c136 -63 251 -117
256 -121 4 -3 -155 -50 -352 -103 l-360 -98 -139 70 c-105 53 -141 76 -146 93
-4 13 -9 66 -13 118 -8 141 27 259 109 361 37 47 136 121 149 113 5 -3 63 -76
128 -163z m1851 -278 c0 -10 -5 -81 -11 -158 -82 -1092 -871 -1962 -1954
-2156 -115 -21 -161 -24 -400 -23 -300 0 -366 7 -605 70 -390 102 -739 299
-1032 582 l-97 94 116 39 c134 45 202 80 295 150 125 94 209 225 252 399 l24
95 523 142 c288 78 524 141 525 140 1 -1 -160 -143 -358 -316 -197 -173 -357
-315 -355 -317 1 -2 108 -17 237 -34 129 -17 244 -35 254 -39 17 -6 10 -14
-47 -55 -37 -26 -67 -51 -67 -55 0 -5 160 -165 355 -356 195 -191 355 -343
355 -339 -1 5 -40 142 -89 304 -48 162 -87 297 -85 299 2 2 108 -98 235 -223
128 -125 234 -225 236 -223 2 2 -33 125 -76 273 -44 148 -78 270 -76 273 2 2
37 -1 77 -7 40 -6 73 -10 74 -9 2 3 391 740 408 775 l17 33 -208 101 c-194 94
-206 101 -178 109 85 24 1641 447 1648 448 4 1 7 -7 7 -16z"/>
</g>
</svg>
